<svg width="86" height="86" viewBox="0 0 86 86" fill="none" xmlns="http://www.w3.org/2000/svg">
<g clip-path="url(#clip0_8_1848)">
<path d="M23.0437 19.2373H27.1536" stroke="#1E1917" stroke-width="0.5" stroke-miterlimit="10"/>
<path d="M58.8455 19.2373H62.9563" stroke="#1E1917" stroke-width="0.5" stroke-miterlimit="10"/>
<path d="M26.7812 6.70117L30.1481 9.05843" stroke="#1E1917" stroke-width="0.5" stroke-miterlimit="10"/>
<path d="M59.0708 6.70117L55.7039 9.05843" stroke="#1E1917" stroke-width="0.5" stroke-miterlimit="10"/>
<path d="M43.3904 1.29004V5.40084" stroke="#1E1917" stroke-width="0.5" stroke-miterlimit="10"/>
<path d="M39.6916 16.4165L39.6864 16.4518C39.6864 16.4518 39.6185 16.4217 39.6916 16.4165Z" fill="#117C2E"/>
<path d="M45.8982 24.4239C45.8372 24.4119 45.6032 24.5013 45.6032 24.5013C45.193 24.5056 45.2635 24.1823 45.2214 24.1573C45.1793 24.1324 44.9686 24.1995 44.9686 24.1995L44.9049 24.0636H44.8628C44.8628 24.0636 44.8929 23.9277 44.7991 23.9277C44.7054 23.9277 44.6048 23.8804 44.5859 23.8176C44.5669 23.7549 44.4809 23.8099 44.4809 23.8099L44.4414 23.8176C44.3984 23.8219 44.2935 23.7678 44.1619 23.7514C44.0303 23.7351 44.0939 23.6981 44.106 23.6396C44.118 23.5811 44.2539 23.0935 44.0587 22.9998C43.8635 22.906 43.2847 22.8235 43.2597 22.7891C43.2348 22.7547 43.2133 22.6713 43.1832 22.6713C43.1227 22.6683 43.0649 22.6453 43.0189 22.6059C42.939 22.5474 42.8899 22.4932 42.8358 22.5199C42.7816 22.5466 42.7893 22.7211 42.6956 22.6919C42.6018 22.6627 42.3206 22.6291 42.3206 22.7272C42.3206 22.8252 42.4539 22.8992 42.2854 22.8992C42.0201 22.6734 41.6797 22.5555 41.3316 22.5689C41.2026 22.5827 41.2456 22.6549 41.2267 22.7469C41.2078 22.839 40.9334 22.9817 40.8913 22.8407C40.8518 22.7382 40.7874 22.6471 40.7038 22.5758H40.2936L40.1508 22.4588H39.7621C39.7621 22.4588 39.7527 22.4967 39.7484 22.5104C39.7495 22.4816 39.7527 22.4529 39.7578 22.4244C39.781 22.2524 39.6985 22.0142 39.6873 21.9368C39.6761 21.8594 39.3055 21.9248 39.2349 21.96C39.1644 21.9953 39.0311 21.9325 39.0311 21.9325C38.9962 21.8718 38.9484 21.8195 38.8909 21.7794C39.3381 22.6652 40.3056 25.4069 40.7365 33.0076C40.8775 35.5016 40.9592 38.5245 40.9481 42.1778C41.1278 42.1563 44.6538 42.1374 44.6538 42.1374C44.6538 38.4196 44.7622 35.444 44.9307 33.0635C45.3289 27.4873 46.0487 25.1816 46.4555 24.2958C46.2517 24.1238 45.9541 24.4394 45.8982 24.4274M34.5841 19.2639H34.474C34.5075 19.3316 34.5547 19.3916 34.6124 19.4402C34.6382 19.454 34.6477 19.417 34.6477 19.3654C34.6238 19.3334 34.6025 19.2995 34.5841 19.2639ZM35.1069 19.3112C34.9289 19.288 34.9169 19.2055 34.9169 19.2055C34.9029 19.1835 34.8815 19.1672 34.8567 19.1595C34.8318 19.1518 34.805 19.1531 34.781 19.1633C34.7879 19.1702 34.7948 19.1797 34.8025 19.1891C34.8102 19.1986 34.8163 19.2751 34.9969 19.2949L35.0596 19.4428H35.1628L35.1069 19.3112ZM35.1886 14.7472C35.1422 14.6483 35.137 14.6113 35.1534 14.6088C35.0811 14.5339 34.9728 14.4445 35.0786 14.6672C35.1749 14.8736 35.2428 14.9037 35.2755 14.902C35.2429 14.8527 35.2141 14.801 35.1895 14.7472M35.2531 14.6767C35.2875 14.712 35.3185 14.7472 35.3185 14.7472C35.3487 14.7511 35.3779 14.7607 35.4045 14.7756C35.3615 14.7312 35.3088 14.6974 35.2506 14.6767M35.2927 19.4566H35.1912C35.2196 19.5013 35.309 19.6389 35.3976 19.6647C35.4307 19.6763 35.466 19.6805 35.5008 19.6767C35.395 19.6441 35.2927 19.4566 35.2927 19.4566ZM35.4114 14.9639C35.4065 14.9689 35.4005 14.9728 35.394 14.9753C35.3875 14.9778 35.3805 14.9789 35.3735 14.9786L35.6995 15.4C35.5389 15.516 35.3961 15.6548 35.2755 15.8119C35.2755 15.8119 35.0553 15.7792 35.0012 15.9177C34.947 16.0561 34.9152 16.2342 34.6193 16.2152L34.486 16.4087C34.5284 16.4903 34.56 16.577 34.5798 16.6667C34.5798 16.6667 34.3716 17.0297 34.1928 17.1071C34.1928 17.1071 34.1274 17.2386 34.2788 17.4468L34.2134 17.6927H34.1171C34.1171 17.6927 34.2366 18.0255 33.9511 17.906L33.8264 18.0307L33.7894 18.2388C33.7894 18.2388 33.5572 18.4168 33.6441 18.6748L33.7636 18.7144L33.995 18.8976H34.0491L34.0655 18.9913L34.1618 19.0567L34.1971 19.1427L34.2951 19.2381H34.4L34.314 19.1607L34.2788 19.0747L34.185 19.0111L34.1687 18.9174H34.1154L33.8875 18.7368L33.7688 18.6972C33.6828 18.4444 33.9133 18.2672 33.9133 18.2672L33.9485 18.0608L34.0732 17.9387C34.3544 18.0556 34.2366 17.728 34.2366 17.728H34.3304L34.3966 17.4863C34.2444 17.2808 34.3106 17.1518 34.3106 17.1518C34.4826 17.0744 34.6924 16.7158 34.6924 16.7158C34.6728 16.626 34.6413 16.5392 34.5987 16.4578L34.7346 16.2634C35.0227 16.2823 35.0579 16.1043 35.1095 15.971C35.1611 15.8377 35.3813 15.8652 35.3813 15.8652C35.5003 15.7111 35.6408 15.5747 35.7984 15.4602L35.4114 14.9639ZM35.8586 15.0723C35.8586 15.0723 35.8164 15.0018 35.5937 14.9476C35.6113 14.9674 35.6272 14.9887 35.641 15.0112C35.9102 15.0646 35.9575 15.1471 35.9575 15.1471C35.9951 15.1512 36.0321 15.1598 36.0676 15.1729C36.0555 15.1308 36.0108 15.0955 35.8586 15.0723ZM36.5148 20.5385C36.4701 20.4414 36.415 20.3494 36.3505 20.2641C36.3542 20.1972 36.3316 20.1315 36.2877 20.0809C36.016 20.013 35.9755 19.9408 35.9755 19.9408C35.9755 19.9408 35.8938 19.9683 35.8938 19.9408C35.8938 19.9132 35.8354 19.835 35.8354 19.835L35.6573 19.7928L35.6221 19.6759C35.6221 19.6759 35.6126 19.7017 35.524 19.6802L35.5541 19.7834L35.7347 19.8255C35.7607 19.8577 35.7806 19.8945 35.7932 19.9339C35.7932 19.9614 35.8792 19.9339 35.8792 19.9339C35.8792 19.9339 35.9188 20.0061 36.1957 20.0766C36.24 20.1277 36.2626 20.1941 36.2585 20.2615C36.3239 20.3482 36.3798 20.4416 36.4253 20.5402C36.4322 20.5875 36.4253 20.7122 36.5423 20.6503C36.5191 20.6245 36.5208 20.5643 36.5165 20.5385M37.5287 21.2437C37.3765 21.1215 37.1279 20.9435 37.0058 20.9151C36.972 20.9086 36.9411 20.8916 36.9176 20.8664C36.8941 20.8412 36.8792 20.8092 36.8751 20.775C36.8751 20.775 36.8536 20.5238 36.7108 20.5987C36.7762 20.6391 36.7882 20.7793 36.7882 20.7793C36.7924 20.8141 36.8076 20.8468 36.8315 20.8725C36.8555 20.8981 36.887 20.9155 36.9215 20.922C37.0462 20.9504 37.2965 21.131 37.4513 21.2548C37.6061 21.3787 37.7136 21.4982 37.7747 21.4268C37.6852 21.3758 37.6026 21.3137 37.5287 21.2419M38.4867 14.9433C38.3147 15.0818 38.2201 15.0164 38.2201 15.0164C38.2201 15.0164 37.9226 14.8384 37.7609 14.8384C37.7609 14.8384 37.5098 14.6483 37.4633 14.6767C37.4169 14.7051 37.4281 14.7421 37.4281 14.7421L37.3085 14.7352V14.8453C37.3085 14.8453 37.1701 14.8926 36.9921 14.712C36.8493 14.7584 36.9499 14.9433 36.9499 14.9433C36.9499 14.9433 37.0531 15.3165 36.6059 15.4498C36.6059 15.4498 36.6825 15.6726 36.5199 15.7311C36.4483 15.7557 36.3702 15.7538 36.2998 15.7259C36.2992 15.7322 36.2992 15.7385 36.2998 15.7448C36.3446 15.7764 36.3959 15.7974 36.4499 15.8063C36.504 15.8153 36.5594 15.8119 36.6119 15.7964C36.7753 15.7379 36.6979 15.5204 36.6979 15.5204C37.1383 15.3862 37.0376 15.0207 37.0376 15.0207C37.0376 15.0207 36.937 14.8384 37.0798 14.7911C37.2518 14.9691 37.3911 14.9227 37.3911 14.9227V14.8152L37.5089 14.822C37.5089 14.822 37.4969 14.7868 37.5442 14.7567C37.5915 14.7266 37.8366 14.9158 37.8366 14.9158C37.9957 14.9158 38.2889 15.0878 38.2889 15.0878C38.2889 15.0878 38.3749 15.1488 38.5392 15.0293C38.5371 15.0124 38.5317 14.9962 38.5233 14.9814C38.5149 14.9667 38.5036 14.9537 38.4902 14.9433M38.5702 15.326C38.5607 15.3518 38.5538 15.3681 38.5538 15.3681C38.5966 15.3718 38.6365 15.3908 38.6665 15.4215C38.6404 15.3841 38.6078 15.3517 38.5702 15.326ZM39.4861 16.0235C39.4792 15.928 39.3734 16.0518 39.3734 16.0518C39.3734 16.0518 39.044 15.7431 38.7 15.7293C38.6931 15.7663 38.6888 15.7947 38.6888 15.7947C39.0638 15.7663 39.4224 16.1112 39.4224 16.1112C39.4418 16.0875 39.4654 16.0677 39.4921 16.0527C39.488 16.0429 39.4857 16.0324 39.4852 16.0217M39.5764 16.1722C39.6018 16.2076 39.6306 16.2404 39.6624 16.2703V16.2539C39.6624 16.2539 39.6202 16.2187 39.5764 16.1722ZM39.7664 16.3666C39.7452 16.3654 39.724 16.3654 39.7028 16.3666L39.6959 16.4208C39.7344 16.4193 39.7729 16.4207 39.8111 16.4251C39.8314 16.4263 39.8512 16.4313 39.8696 16.4397C39.8765 16.4062 39.8533 16.3786 39.7664 16.3692M39.8722 16.5661C39.8481 16.5893 39.8249 16.61 39.8154 16.6177C39.8608 16.609 39.9076 16.6124 39.9512 16.6275C39.9949 16.6425 40.0337 16.6688 40.064 16.7037C40.0435 16.6683 40.0159 16.6375 39.9829 16.6134C39.9499 16.5893 39.9122 16.5723 39.8722 16.5635M40.1156 16.7717C40.1261 16.7901 40.1355 16.809 40.144 16.8284C40.2515 16.7837 40.316 16.7932 40.3478 16.8207C40.3332 16.7785 40.2816 16.7089 40.1156 16.7717ZM40.8414 17.0064C40.8414 17.0064 40.7245 16.9497 40.6944 17.0064C40.6944 17.0064 40.5224 16.7932 40.371 16.8422C40.3823 16.8589 40.3894 16.8781 40.3916 16.8981C40.549 16.8284 40.727 17.0529 40.727 17.0529C40.7554 16.9987 40.8724 17.0529 40.8724 17.0529C40.9447 17.0624 41.0112 17.0975 41.0599 17.1518V17.1397C41.0347 17.1036 41.0022 17.0731 40.9646 17.0502C40.927 17.0272 40.8851 17.0123 40.8414 17.0064ZM41.2241 17.2644C41.2241 17.2644 41.1381 17.2971 41.09 17.2601C41.1158 17.3418 41.2095 17.3203 41.2405 17.3117C41.2332 17.2967 41.2277 17.2808 41.2241 17.2644ZM41.2843 17.4029C41.3117 17.4665 41.3621 17.5175 41.4254 17.5457C41.4256 17.5349 41.4289 17.5245 41.4348 17.5156C41.4033 17.5083 41.3736 17.4945 41.3477 17.4751C41.3218 17.4557 41.3002 17.4311 41.2843 17.4029ZM41.5002 17.8269C41.5258 17.8797 41.5665 17.9237 41.6171 17.9533C41.6169 17.9456 41.6193 17.938 41.624 17.9318C41.5755 17.9064 41.5332 17.8706 41.5002 17.8269ZM42.2406 17.9722C42.2011 17.9722 41.9637 17.9602 41.9173 18.1571C41.8408 18.147 41.7683 18.1174 41.7066 18.0711C41.6812 18.056 41.6583 18.0372 41.6386 18.0152C41.6455 18.0384 41.6687 18.0668 41.7246 18.1012C41.7847 18.147 41.8554 18.1766 41.9302 18.1872C41.9818 17.9765 42.2535 18.0049 42.2535 18.0049C42.2462 17.9944 42.2415 17.9823 42.2398 17.9696M43.1135 18.2973C43.1047 18.2958 43.0966 18.2916 43.0903 18.2853C43.084 18.279 43.0798 18.2709 43.0783 18.262C43.074 18.2947 43.0783 18.3231 43.111 18.3283C43.1436 18.3334 43.1462 18.3377 43.1514 18.3463C43.1583 18.3257 43.1626 18.3042 43.1135 18.2973ZM43.0224 18.0023L42.957 17.8991L42.7506 17.8596C42.7506 17.8596 42.7128 17.7331 42.3542 17.8243C42.2002 17.8664 42.226 17.9387 42.2398 17.9628C42.2398 17.9292 42.263 17.8871 42.3636 17.8596C42.7179 17.7736 42.7532 17.8948 42.7532 17.8948L42.957 17.9344L43.0224 18.035C43.123 18.035 43.1626 18.0513 43.172 18.0703C43.1935 18.0445 43.1909 18.0023 43.0224 18.0023ZM43.123 18.4822C43.1203 18.4922 43.1163 18.5017 43.111 18.5106C43.2494 18.5106 43.2778 18.5966 43.2615 18.6826C43.2847 18.5802 43.2658 18.4788 43.123 18.4788M44.2874 19.6346C44.2874 19.6346 44.2548 19.3198 43.8144 19.3388C43.76 19.3115 43.7142 19.2698 43.6819 19.2182C43.6496 19.1667 43.6321 19.1072 43.6313 19.0464C43.5563 19.0053 43.4695 18.991 43.3853 19.0059C43.3853 19.0059 43.3552 18.9199 43.1789 18.9148C43.1767 18.9223 43.1735 18.9296 43.1694 18.9363C43.35 18.9432 43.381 19.0223 43.381 19.0223C43.4635 19.0084 43.5483 19.0226 43.6218 19.0627C43.6226 19.1227 43.6398 19.1813 43.6717 19.2321C43.7035 19.2829 43.7488 19.324 43.8024 19.3508C44.2384 19.3345 44.2685 19.6432 44.2685 19.6432C44.3926 19.6797 44.5139 19.7251 44.6314 19.7791C44.6381 19.7745 44.6454 19.7708 44.6529 19.7679C44.5345 19.7139 44.4124 19.6685 44.2874 19.632M44.6908 19.7507C44.757 19.7389 44.8251 19.7431 44.8894 19.7627L44.9015 19.749C44.8327 19.729 44.7596 19.729 44.6908 19.749M45.433 19.663C45.436 19.6549 45.437 19.6462 45.4358 19.6377C45.4346 19.6291 45.4313 19.621 45.4261 19.6141C45.421 19.6072 45.4142 19.6016 45.4064 19.598C45.3986 19.5944 45.39 19.5928 45.3814 19.5933C45.3814 19.5933 45.3323 19.4669 45.1328 19.5606C45.3048 19.4927 45.3487 19.6045 45.3487 19.6045C45.3573 19.6043 45.3658 19.6062 45.3734 19.61C45.3811 19.6138 45.3878 19.6194 45.3929 19.6263C45.3979 19.6332 45.4012 19.6413 45.4025 19.6498C45.4038 19.6582 45.4031 19.6669 45.4003 19.675C45.4656 19.933 45.2128 20.0637 45.2128 20.0637V20.3802C45.2248 20.3802 45.2343 20.3802 45.2438 20.3802V20.062C45.2438 20.062 45.5018 19.9304 45.433 19.6656M45.267 20.3802C45.3238 20.3786 45.3803 20.389 45.4327 20.4108C45.4852 20.4326 45.5325 20.4653 45.5714 20.5066C45.5791 20.5015 45.588 20.4986 45.5972 20.498C45.5535 20.4563 45.5016 20.4242 45.4447 20.4039C45.3878 20.3836 45.3272 20.3756 45.267 20.3802ZM45.6815 20.4886C45.732 20.4911 45.7819 20.5012 45.8294 20.5187C45.8314 20.5153 45.8337 20.5122 45.8363 20.5092C45.7864 20.493 45.7339 20.486 45.6815 20.4886ZM46.2276 20.4413C46.1691 20.4413 46.1081 20.4249 46.0444 20.4301C46.0917 20.4301 46.1382 20.4413 46.1829 20.4413C46.2955 20.4413 46.3772 20.584 46.3772 20.584C46.3872 20.576 46.3966 20.5673 46.4056 20.5582C46.3864 20.5269 46.3605 20.5001 46.3297 20.4799C46.2989 20.4597 46.2641 20.4465 46.2276 20.4413ZM46.7754 24.884C46.7175 24.8686 46.6633 24.8414 46.6163 24.8041C46.6663 24.8774 46.7428 24.9285 46.8296 24.9468H46.8434C46.8443 24.9379 46.8432 24.9288 46.84 24.9204C46.8369 24.912 46.8318 24.9045 46.8252 24.8984C46.8186 24.8923 46.8106 24.8878 46.802 24.8853C46.7934 24.8828 46.7843 24.8824 46.7754 24.884ZM47.1151 21.217C46.9302 21.131 47.1813 20.873 46.7333 20.7294C46.7333 20.7294 46.698 20.3174 46.5836 20.3174C46.581 20.3242 46.5787 20.3311 46.5768 20.3381C46.6559 20.4241 46.6817 20.7251 46.6817 20.7251C47.122 20.8704 46.876 21.1181 47.0592 21.205C47.2424 21.2918 47.0988 21.4888 47.0988 21.4888L47.1573 21.5025C47.1573 21.5025 47.3009 21.3056 47.1151 21.217ZM46.8571 24.952C46.8786 24.9563 46.9018 24.9752 46.8924 25.0285C46.8924 25.0285 47.2553 24.6966 47.4849 24.8651C47.2931 24.6071 46.9397 24.8815 46.8571 24.9511M47.81 21.0699L47.7025 20.8979L47.6672 20.9375L47.7421 21.0545C47.7421 21.0545 47.6251 21.1671 47.7068 21.3804C47.7282 21.3801 47.7496 21.3825 47.7704 21.3873C47.693 21.174 47.81 21.0639 47.81 21.0639M47.8384 21.401C47.9588 21.4356 48.0744 21.4853 48.1824 21.549L48.2039 21.5369C48.0902 21.4721 47.9668 21.4262 47.8384 21.401ZM48.59 21.0699C48.6094 21.0796 48.6275 21.0914 48.6442 21.1052C48.659 21.0987 48.6746 21.094 48.6906 21.0914C48.6605 21.0725 48.6184 21.0536 48.59 21.0699ZM48.8618 21.082C48.8968 21.0974 48.9265 21.1227 48.9472 21.1548C48.968 21.1869 48.979 21.2244 48.9787 21.2626C49.0097 21.2626 49.0372 21.2695 49.0647 21.2738C49.0658 21.2475 49.0613 21.2213 49.0514 21.1969C49.0416 21.1725 49.0266 21.1504 49.0076 21.1323C48.9885 21.1141 48.9658 21.1003 48.941 21.0916C48.9161 21.0829 48.8897 21.0796 48.8635 21.082M49.0716 21.2738C49.3881 21.3279 49.278 21.4569 49.4285 21.4569C49.4377 21.4557 49.4469 21.4557 49.456 21.4569C49.3881 21.4191 49.4259 21.309 49.0716 21.2712M49.6857 25.0784C49.6857 24.9967 49.604 24.8961 49.6108 24.9967C49.6177 25.0973 49.358 25.1911 49.358 25.1911L49.1353 25.3321C49.0389 25.2547 48.9177 25.3433 48.8162 25.3321C48.7147 25.3209 48.4232 25.0672 48.3406 25.032C48.2581 24.9967 48.0826 24.9898 48.0173 24.9193C47.9519 24.8488 47.6733 24.9382 47.6733 24.9382C47.6733 24.8797 47.4927 24.8729 47.4927 24.8729C47.5174 24.8899 47.5389 24.9112 47.5563 24.9356C47.5563 24.9356 47.7343 24.9425 47.7395 25.0019C47.7395 25.0019 48.0276 24.9159 48.0904 24.9829C48.1531 25.05 48.3363 25.0603 48.4189 25.0973C48.5014 25.1343 48.8007 25.388 48.9013 25.4C49.002 25.4121 49.1258 25.3226 49.2247 25.4L49.4492 25.259C49.5368 25.2279 49.6164 25.1776 49.6822 25.1119C49.6811 25.1017 49.6811 25.0913 49.6822 25.081M49.8439 21.7167C49.6289 21.5447 49.6822 21.4707 49.5162 21.4707C49.579 21.4991 49.5911 21.5713 49.7476 21.6986C49.7984 21.7452 49.8644 21.7718 49.9333 21.7734C49.9024 21.7583 49.8734 21.7392 49.8473 21.7167M50.0443 25.4147C49.9799 25.4238 49.9144 25.4182 49.8525 25.3983C49.8894 25.4363 49.9354 25.4642 49.9862 25.4792C50.0369 25.4943 50.0907 25.496 50.1423 25.4843C50.0864 25.4473 50.0443 25.4147 50.0443 25.4147ZM50.187 21.7167L50.1802 21.7235C50.2015 21.7298 50.2234 21.7339 50.2455 21.7356C50.2275 21.7313 50.2085 21.7235 50.187 21.7167ZM50.5431 21.7167C50.5363 21.7223 50.5284 21.7264 50.5199 21.7287C50.548 21.7359 50.5768 21.7399 50.6059 21.7407C50.5859 21.734 50.5664 21.7259 50.5474 21.7167M50.906 21.6608C50.8913 21.6812 50.8729 21.6987 50.8518 21.7124L50.8828 21.7493L50.9688 21.7425L50.906 21.6608ZM51.1313 21.7571L51.084 21.7614C51.1049 21.7669 51.1268 21.7669 51.1477 21.7614C51.1425 21.7614 51.1356 21.7562 51.1313 21.7545M51.5527 25.2495C51.5527 25.4138 51.342 25.2848 51.342 25.2848C51.3111 25.4327 51.1244 25.3708 51.1244 25.3708C50.9602 25.5428 50.8664 25.4405 50.8664 25.4405C50.3676 25.1945 50.4364 25.5583 50.316 25.5462C50.2576 25.5372 50.2013 25.5173 50.1501 25.4878C50.2278 25.5526 50.3202 25.5974 50.4192 25.6185C50.5431 25.6305 50.4708 25.2624 50.9765 25.511C50.9765 25.511 51.0685 25.6142 51.2345 25.4405C51.2345 25.4405 51.4246 25.5067 51.4547 25.3545C51.4547 25.3545 51.6396 25.4697 51.6654 25.3545C51.6229 25.3258 51.5837 25.2927 51.5484 25.2556M51.5957 21.5447C51.6339 21.552 51.6714 21.563 51.7075 21.5773C51.7156 21.5725 51.7243 21.5688 51.7333 21.5662C51.6883 21.5544 51.6422 21.5472 51.5957 21.5447ZM51.9165 21.5636C51.9447 21.5751 51.9712 21.5901 51.9956 21.6083C52.0083 21.6004 52.0227 21.5954 52.0375 21.5938C52.0524 21.5921 52.0675 21.5939 52.0816 21.5988C52.0326 21.5693 51.9751 21.5569 51.9182 21.5636M52.1169 23.8409C52.1169 23.8409 51.9741 23.7549 51.9741 23.4539C51.9741 23.1529 52.1461 23.0677 52.0894 22.9929C52.0326 22.9181 52.0137 22.8028 52.0894 22.7908C52.0653 22.7551 52.0488 22.7149 52.0408 22.6726C52.0328 22.6303 52.0335 22.5868 52.0429 22.5448C52.0773 22.4236 52.3379 22.1071 52.3499 21.7089C52.3499 21.7089 52.2252 21.5773 52.1315 21.6229C52.1629 21.6429 52.1918 21.6666 52.2175 21.6934C52.2055 22.0873 51.9475 22.3986 51.9122 22.5208C51.9038 22.562 51.9037 22.6046 51.9118 22.6459C51.9199 22.6872 51.9361 22.7265 51.9595 22.7616C51.8821 22.7736 51.8941 22.8906 51.9595 22.9611C52.0249 23.0316 51.8468 23.1159 51.8468 23.4152C51.8468 23.7144 51.987 23.797 51.987 23.797C52.5211 24.313 52.0808 25.0646 52.0808 25.0646C52.0808 25.0646 52.1513 25.3106 52.0808 25.3106C52.0102 25.3106 51.9406 25.5007 51.9406 25.5007H51.9165C52.0644 25.5686 51.9707 25.5798 51.9707 25.5798L52.067 25.5686C52.067 25.5686 52.1332 25.3699 52.202 25.3699C52.2708 25.3699 52.202 25.1223 52.202 25.1223C52.202 25.1223 52.6475 24.3577 52.1057 23.8323" fill="#35B14F"/>
<path d="M36.2507 44.8826V43.8867H49.7527V48.2822C49.7527 48.2822 49.4775 50.5182 43.8764 51.9733C39.1163 52.1831 36.0891 49.6823 36.3643 47.9313H43.989C43.989 47.9313 44.7991 47.2958 43.9572 46.8271C43.074 47.1668 36.575 46.1795 36.2516 44.8843" fill="#363636"/>
<path d="M39.6916 16.4165L39.6864 16.4518C39.6864 16.4518 39.6185 16.4217 39.6916 16.4165Z" fill="white"/>
<path d="M0.49707 66.8718V58.3682H2.30823V66.8718H0.49707Z" fill="#35B14F"/>
<path d="M3.99127 66.8718V58.3682H7.34527C10.0113 58.3682 11.8586 60.0632 11.8586 62.6131C11.8586 65.1931 10.0096 66.8718 7.35731 66.8718H3.99127ZM10.0113 62.6131C10.0113 61.1219 9.09365 59.9617 7.35903 59.9617H5.80157V65.2783H7.34441C9.03001 65.2783 10.0087 64.07 10.0087 62.6131H10.0113Z" fill="#35B14F"/>
<path d="M13.1451 66.8718V58.3682H19.1651V59.9617H14.9562V61.748H19.0739V63.3415H14.9562V65.28H19.1634V66.8736L13.1451 66.8718Z" fill="#35B14F"/>
<path d="M26.4562 66.8718L25.9213 65.4313H22.274L21.7382 66.8718H19.6863L22.962 58.3682H25.2324L28.509 66.8718H26.4562ZM24.0981 60.1785L22.772 63.8378H25.4233L24.0981 60.1785Z" fill="#35B14F"/>
<path d="M29.3002 66.8718V58.3682H33.282C35.1301 58.3682 36.138 59.6169 36.138 61.109C36.138 62.5882 35.1181 63.8378 33.282 63.8378H31.1105V66.8718H29.3002ZM34.2882 61.1098C34.2882 60.396 33.7395 59.9626 33.0257 59.9626H31.1105V62.2442H33.024C33.7369 62.2433 34.2856 61.8099 34.2856 61.109L34.2882 61.1098Z" fill="#363636"/>
<path d="M42.0764 66.8718L40.4054 63.8498H39.0801V66.8718H37.269V58.3682H41.2473C43.0198 58.3682 44.1163 59.5283 44.1163 61.109C44.1163 62.6011 43.16 63.4164 42.2415 63.6331L44.167 66.8718H42.0764ZM42.2544 61.0961C42.2544 60.3952 41.7066 59.9617 40.9919 59.9617H39.0801V62.2562H40.9919C41.71 62.2562 42.2544 61.8228 42.2544 61.0961Z" fill="#363636"/>
<path d="M45.4673 66.8718V58.3682H51.4873V59.9617H47.2785V61.748H51.3962V63.3415H47.2785V65.28H51.4856V66.8736L45.4673 66.8718Z" fill="#363636"/>
<path d="M58.7655 66.8718L54.7115 61.3257V66.8718H52.9055V58.3682H54.7665L58.7062 63.7096V58.3682H60.5173V66.8718H58.7655Z" fill="#363636"/>
<path d="M62.196 66.8718V58.3682H68.216V59.9617H64.0063V61.748H68.124V63.3415H64.0063V65.28H68.2135V66.8736L62.196 66.8718Z" fill="#363636"/>
<path d="M69.629 63.468V58.3682H71.466V63.4164C71.466 64.6023 72.154 65.4184 73.4672 65.4184C74.7804 65.4184 75.4564 64.6023 75.4564 63.4164V58.3682H77.3054V63.468C77.3054 65.5715 76.0558 67.0249 73.4672 67.0249C70.8786 67.0249 69.629 65.5715 69.629 63.468Z" fill="#363636"/>
<path d="M83.7941 66.8718L82.124 63.8498H80.7979V66.8718H78.9919V58.3682H82.9702C84.7418 58.3682 85.8383 59.5283 85.8383 61.109C85.8383 62.6011 84.8829 63.4164 83.9644 63.6331L85.8899 66.8718H83.7941ZM83.973 61.0961C83.973 60.3952 83.4243 59.9617 82.7105 59.9617H80.7979V62.2562H82.7105C83.4243 62.2562 83.973 61.8228 83.973 61.0961Z" fill="#363636"/>
<path d="M30.186 82.1721L26.1311 76.626V82.1721H24.3208V73.6685H26.1827L30.1224 79.0099V73.6685H31.9327V82.1721H30.186Z" fill="#363636"/>
<path d="M33.6157 82.1721V73.6685H39.6357V75.262H35.426V77.0465H39.5445V78.641H35.426V80.582H39.6339V82.1756L33.6157 82.1721Z" fill="#363636"/>
<path d="M41.0486 82.1721V73.6685H45.027C46.876 73.6685 47.8831 74.918 47.8831 76.4093C47.8831 77.9005 46.8631 79.1381 45.027 79.1381H42.8598V82.1721H41.0486ZM46.0366 76.4101C46.0366 75.6963 45.4888 75.2629 44.7742 75.2629H42.8598V77.5453H44.7716C45.4862 77.5445 46.0341 77.1102 46.0341 76.4093L46.0366 76.4101Z" fill="#363636"/>
<path d="M53.965 82.1721L53.4292 80.7316H49.7828L49.2479 82.1721H47.1951L50.4717 73.6685H52.7412L56.0178 82.1721H53.965ZM51.606 75.4788L50.2799 79.1381H52.9321L51.606 75.4788Z" fill="#363636"/>
<path d="M56.7316 82.1721V73.6685H58.5548V80.582H62.1505V82.1756L56.7316 82.1721Z" fill="#363636"/>
<path d="M46.4564 24.2916C46.0504 25.1774 45.3289 27.4831 44.9307 33.0636C43.539 33.2746 42.1221 33.2557 40.7365 33.0077C40.3065 25.407 39.3381 22.6653 38.8909 21.7795C38.9482 21.8195 38.996 21.8714 39.0311 21.9318C39.0311 21.9318 39.1644 21.9954 39.2349 21.9601C39.3055 21.9249 39.6753 21.8621 39.6873 21.9369C39.6993 22.0117 39.781 22.2551 39.7578 22.4245C39.7529 22.4515 39.7497 22.4788 39.7484 22.5062C39.7527 22.4925 39.7621 22.4546 39.7621 22.4546H40.1508L40.2936 22.5716H40.7038C40.7874 22.6429 40.8518 22.734 40.8913 22.8365C40.9334 22.9775 41.2104 22.8365 41.2267 22.7427C41.243 22.649 41.2035 22.5785 41.3316 22.5647C41.6797 22.5513 42.0201 22.6692 42.2854 22.895C42.4574 22.895 42.3206 22.8244 42.3206 22.723C42.3206 22.6215 42.6018 22.6602 42.6956 22.6877C42.7893 22.7152 42.7816 22.5406 42.8357 22.5157C42.8899 22.4908 42.939 22.5458 43.0189 22.6017C43.0649 22.6411 43.1227 22.6641 43.1832 22.6671C43.2133 22.6671 43.2296 22.7531 43.2606 22.7849C43.2916 22.8167 43.8626 22.9018 44.0595 22.9956C44.2565 23.0893 44.118 23.5761 44.106 23.6354C44.0939 23.6948 44.0312 23.7283 44.1619 23.7472C44.2926 23.7661 44.3992 23.8177 44.4414 23.8134L44.4809 23.8057C44.4809 23.8057 44.5669 23.7472 44.5867 23.8134C44.6065 23.8797 44.7054 23.9235 44.7991 23.9235C44.8929 23.9235 44.8628 24.0594 44.8628 24.0594H44.9049L44.9686 24.1953C44.9686 24.1953 45.181 24.1222 45.2214 24.1531C45.2618 24.1841 45.193 24.504 45.6032 24.4971C45.6032 24.4971 45.8372 24.4111 45.8982 24.4197C45.9593 24.4283 46.2525 24.1196 46.4564 24.2882" fill="#35B14F"/>
<path d="M55.6661 21.3994C55.5165 23.159 55.0056 24.8111 54.352 26.2447L54.3374 26.2731C53.9865 27.0434 53.5786 27.7865 53.1171 28.4962C52.8522 28.9064 52.583 29.2813 52.3224 29.6142C49.2092 33.602 50.7134 37.1684 50.1879 40.0709C49.708 42.73 45.5611 42.2501 44.8671 42.1512C44.8628 38.4034 44.966 35.4114 45.1251 33.0284C45.488 27.5811 46.1468 25.3081 46.5011 24.4438C46.5011 24.4929 46.5011 24.5445 46.5105 24.5961C46.5148 24.6796 46.5508 24.7584 46.6112 24.8162C46.6612 24.8895 46.7376 24.9407 46.8244 24.959H46.8382C46.839 24.9653 46.839 24.9716 46.8382 24.9779L46.8563 24.9641C46.8778 24.9684 46.901 24.9874 46.8915 25.0407C46.8915 25.0407 47.2544 24.7087 47.4841 24.8773C47.5088 24.8943 47.5303 24.9156 47.5477 24.9401C47.5477 24.9401 47.7257 24.9478 47.7309 25.0063C47.7309 25.0063 48.019 24.9203 48.0818 24.9874C48.1446 25.0544 48.3277 25.0648 48.4103 25.1017C48.4928 25.1387 48.7921 25.3924 48.8927 25.4045C48.9934 25.4165 49.1172 25.3271 49.2161 25.4045L49.4406 25.2634C49.5317 25.2322 49.6144 25.1804 49.6822 25.1121C49.6783 25.1703 49.6919 25.2284 49.7211 25.279C49.7504 25.3295 49.794 25.3702 49.8465 25.3959C49.8834 25.4338 49.9294 25.4617 49.9802 25.4768C50.0309 25.4918 50.0847 25.4936 50.1363 25.4819L50.144 25.487C50.2216 25.5522 50.3141 25.5971 50.4132 25.6177C50.5371 25.6298 50.4648 25.2617 50.9705 25.5102C50.9705 25.5102 51.0625 25.6134 51.2285 25.4397C51.2285 25.4397 51.4186 25.5059 51.4487 25.3537C51.4487 25.3537 51.6336 25.469 51.6594 25.3537C51.699 25.3809 51.7407 25.4051 51.7841 25.426L51.7978 25.4328C51.7978 25.4328 51.8021 25.438 51.8047 25.438C51.8199 25.4485 51.8357 25.4579 51.852 25.4664C51.8967 25.4991 51.8408 25.5068 51.8408 25.5068L51.9113 25.4973C52.0584 25.5653 51.9647 25.5765 51.9647 25.5765L52.061 25.5653C52.061 25.5653 52.1332 25.3701 52.202 25.3701C52.2708 25.3701 52.202 25.1224 52.202 25.1224C52.202 25.1224 52.6475 24.3578 52.1057 23.8324C52.1057 23.8324 51.9629 23.7464 51.9629 23.4454C51.9629 23.1444 52.1349 23.0592 52.0782 22.9844C52.0214 22.9096 52.0025 22.7944 52.0782 22.7823C52.0541 22.7466 52.0376 22.7064 52.0296 22.6641C52.0216 22.6218 52.0224 22.5784 52.0317 22.5364C52.067 22.4151 52.3267 22.0986 52.3388 21.7004C52.3388 21.7004 52.2141 21.5689 52.1203 21.6144C52.1071 21.6072 52.0929 21.6017 52.0782 21.5981C52.0745 21.5985 52.0707 21.5985 52.067 21.5981C52.0175 21.5689 51.9599 21.5565 51.9028 21.5628C51.8742 21.5505 51.8435 21.5441 51.8124 21.5441C51.7814 21.5441 51.7506 21.5505 51.7221 21.5628C51.6771 21.551 51.631 21.5438 51.5845 21.5413C51.5359 21.5308 51.4864 21.5244 51.4366 21.5224C51.3214 21.5181 51.275 21.7383 51.1339 21.7641C51.1287 21.7641 51.1219 21.7589 51.1176 21.7572L51.0703 21.7615C51.0474 21.7573 51.0253 21.7495 51.0049 21.7383L50.9576 21.7426L50.8923 21.6566C50.8776 21.677 50.8592 21.6945 50.8381 21.7082L50.7822 21.6402C50.7601 21.6699 50.7314 21.694 50.6985 21.7107C50.6655 21.7275 50.6291 21.7363 50.5921 21.7366C50.5721 21.7298 50.5526 21.7217 50.5336 21.7125C50.5271 21.7185 50.5191 21.7227 50.5104 21.7245C50.4808 21.7176 50.4519 21.7075 50.4244 21.6944C50.367 21.7303 50.2983 21.7435 50.2318 21.7314C50.212 21.7262 50.1924 21.7198 50.1733 21.7125L50.1664 21.7202C50.1346 21.7139 50.1033 21.7053 50.0727 21.6944C50.0543 21.7166 50.0315 21.7348 50.0058 21.7477C49.98 21.7606 49.9518 21.7679 49.923 21.7692C49.892 21.7541 49.8631 21.735 49.837 21.7125C49.622 21.5405 49.6753 21.4665 49.5094 21.4665C49.491 21.4583 49.471 21.4545 49.4509 21.4553C49.3829 21.4175 49.4208 21.3074 49.0665 21.2696H49.0596C49.0607 21.2433 49.0561 21.2171 49.0463 21.1927C49.0364 21.1683 49.0215 21.1463 49.0024 21.1281C48.9834 21.11 48.9607 21.0961 48.9358 21.0874C48.911 21.0787 48.8846 21.0755 48.8583 21.0778C48.8014 21.0628 48.7413 21.0661 48.6863 21.0873C48.6562 21.0683 48.6141 21.0494 48.5857 21.0658C48.5384 21.0425 48.4782 21.0331 48.4705 21.1414C48.4453 21.1514 48.4228 21.1672 48.4048 21.1875C48.3869 21.2078 48.374 21.2321 48.3672 21.2583C48.3604 21.2846 48.3599 21.312 48.3657 21.3385C48.3716 21.365 48.3836 21.3897 48.4008 21.4106L48.2039 21.5345C48.0902 21.4696 47.9668 21.4237 47.8384 21.3986C47.8162 21.3922 47.7934 21.3876 47.7704 21.3848C47.693 21.1715 47.81 21.0615 47.81 21.0615L47.7025 20.8981C47.7025 20.8981 47.6888 20.9144 47.6672 20.9376L47.6371 20.8903C47.6371 20.8903 47.5013 21.0572 47.3955 21.0623C47.2897 21.0675 47.4729 21.4631 47.4729 21.4631L47.337 21.562L47.1538 21.5121C47.1538 21.5121 47.2974 21.3152 47.1117 21.2266C46.9259 21.138 47.1779 20.8826 46.7298 20.739C46.7298 20.739 46.6946 20.327 46.5802 20.327C46.5775 20.3338 46.5752 20.3407 46.5733 20.3477C46.5616 20.3372 46.5468 20.3309 46.5312 20.3296C46.5053 20.4171 46.4613 20.4983 46.4022 20.5678C46.3829 20.5364 46.357 20.5097 46.3262 20.4895C46.2955 20.4692 46.2606 20.4561 46.2242 20.4509C46.1657 20.4509 46.1046 20.4345 46.041 20.4397C46.0024 20.4331 45.9627 20.437 45.9261 20.4509C45.8895 20.4648 45.8573 20.4882 45.8329 20.5188C45.783 20.5025 45.7305 20.4955 45.6781 20.4982C45.6491 20.4922 45.619 20.4955 45.5921 20.5076C45.5484 20.4659 45.4964 20.4338 45.4395 20.4135C45.3826 20.3932 45.3221 20.3851 45.2618 20.3898H45.2386V20.0716C45.2386 20.0716 45.4966 19.94 45.4278 19.6751C45.4308 19.6671 45.4318 19.6584 45.4306 19.6498C45.4294 19.6413 45.4261 19.6332 45.421 19.6263C45.4158 19.6193 45.4091 19.6138 45.4012 19.6102C45.3934 19.6065 45.3848 19.6049 45.3762 19.6055C45.3762 19.6055 45.3272 19.4791 45.1285 19.5728C45.127 19.5721 45.1254 19.5718 45.1238 19.5718C45.1222 19.5718 45.1206 19.5721 45.1191 19.5728C45.0727 19.5895 45.0292 19.6133 44.9901 19.6433L44.8963 19.7534C44.8276 19.7331 44.7544 19.7331 44.6856 19.7534C44.6856 19.7534 44.6779 19.7534 44.6762 19.7534C44.6658 19.7562 44.6561 19.7612 44.6478 19.768C44.5294 19.714 44.4072 19.6686 44.2823 19.6321C44.2823 19.6321 44.2496 19.3182 43.8093 19.3363C43.7549 19.309 43.709 19.2673 43.6767 19.2158C43.6444 19.1642 43.6269 19.1047 43.6261 19.0439C43.5511 19.0028 43.4643 18.9886 43.3801 19.0035C43.3801 19.0035 43.35 18.9175 43.1737 18.9123C43.2144 18.8433 43.2434 18.768 43.2597 18.6896C43.2597 18.6853 43.2597 18.6827 43.2597 18.6801C43.283 18.5778 43.264 18.4763 43.1213 18.4763C43.1343 18.4562 43.1401 18.4322 43.1376 18.4084C43.1395 18.4043 43.1404 18.3999 43.1404 18.3955C43.1404 18.391 43.1395 18.3866 43.1376 18.3826C43.1421 18.378 43.1454 18.3724 43.147 18.3662C43.1487 18.36 43.1487 18.3535 43.1471 18.3473C43.154 18.3267 43.1583 18.3052 43.1092 18.2983C43.1004 18.2969 43.0922 18.2928 43.0858 18.2864C43.0795 18.2801 43.0753 18.2719 43.074 18.263V18.2536C43.0798 18.2046 43.1012 18.1588 43.135 18.1228C43.1514 18.1228 43.1841 18.0945 43.1677 18.0712C43.1892 18.0454 43.1866 18.0033 43.0181 18.0033L42.9527 17.9001L42.7463 17.8605C42.7463 17.8605 42.7085 17.7341 42.3499 17.8253C42.1959 17.8674 42.2217 17.9397 42.2355 17.9637V17.9741C42.1959 17.9741 41.9586 17.962 41.9121 18.159C41.8358 18.1486 41.7633 18.119 41.7014 18.073C41.6762 18.0573 41.6533 18.0382 41.6335 18.0162C41.6297 18.0096 41.628 18.002 41.6288 17.9944C41.6296 17.9869 41.6327 17.9797 41.6378 17.9741L41.612 17.9603C41.6116 17.9528 41.6141 17.9454 41.6189 17.9397C41.5704 17.9138 41.5282 17.8777 41.495 17.8339C41.4835 17.8141 41.4779 17.7914 41.4787 17.7685C41.4787 17.7685 41.4082 17.6438 41.4503 17.5621C41.4401 17.5595 41.4301 17.5564 41.4202 17.5527C41.4205 17.5419 41.4237 17.5315 41.4297 17.5226C41.3981 17.5153 41.3685 17.5015 41.3426 17.4821C41.3166 17.4627 41.2951 17.4381 41.2792 17.4099C41.275 17.4051 41.2718 17.3996 41.2697 17.3936C41.26 17.3682 41.2517 17.3424 41.2448 17.3162C41.2417 17.3173 41.2384 17.3173 41.2353 17.3162C41.2281 17.3011 41.2226 17.2852 41.219 17.2689C41.219 17.2689 41.133 17.3015 41.0848 17.2646C41.0795 17.2397 41.078 17.2142 41.0805 17.1889C41.0805 17.1889 41.071 17.1751 41.0547 17.1545V17.1424C41.0295 17.1063 40.9971 17.0758 40.9595 17.0529C40.9219 17.0299 40.8799 17.015 40.8363 17.0091C40.8363 17.0091 40.7193 16.9524 40.6892 17.0091C40.6892 17.0091 40.5172 16.7959 40.3658 16.8449C40.3592 16.8366 40.3514 16.8294 40.3426 16.8234C40.328 16.7812 40.2764 16.7116 40.1104 16.7744C40.0975 16.752 40.0816 16.7314 40.0631 16.7133C40.0625 16.7106 40.061 16.7082 40.0588 16.7064C40.0384 16.671 40.0107 16.6402 39.9777 16.6161C39.9447 16.592 39.907 16.575 39.867 16.5662C39.9066 16.5215 39.9419 16.463 39.867 16.4398C39.8739 16.4071 39.8507 16.3788 39.7638 16.3693C39.7427 16.3681 39.7214 16.3681 39.7002 16.3693L39.7079 16.3177C39.7079 16.3177 39.6865 16.3014 39.6581 16.2756V16.2592C39.6581 16.2592 39.6159 16.224 39.5721 16.1775C39.567 16.1739 39.5631 16.1688 39.5609 16.1629C39.544 16.1412 39.5333 16.1153 39.5299 16.0881C39.5299 16.0511 39.5093 16.0485 39.4878 16.058C39.4837 16.0481 39.4814 16.0377 39.4809 16.027C39.474 15.9316 39.3682 16.0554 39.3682 16.0554C39.3682 16.0554 39.044 15.7432 38.7 15.7295C38.7078 15.6703 38.7343 15.6151 38.7757 15.5721C38.7472 15.5159 38.7101 15.4645 38.6656 15.4199C38.6396 15.3825 38.6069 15.3501 38.5693 15.3244C38.5951 15.2427 38.6372 15.081 38.553 15.0217C38.5483 15.0259 38.5434 15.03 38.5383 15.0337C38.5364 15.0168 38.5311 15.0005 38.5227 14.9857C38.5142 14.9709 38.5029 14.958 38.4893 14.9477C38.3173 15.0853 38.2227 15.02 38.2227 15.02C38.2227 15.02 37.9252 14.8419 37.7635 14.8419C37.7635 14.8419 37.5124 14.6519 37.4659 14.6803C37.4195 14.7086 37.4307 14.7456 37.4307 14.7456L37.3111 14.7387V14.8488C37.3111 14.8488 37.1727 14.8961 36.9946 14.7155C36.8519 14.762 36.9525 14.9477 36.9525 14.9477C36.9525 14.9477 37.0557 15.3201 36.6085 15.4534C36.6085 15.4534 36.685 15.6761 36.5225 15.7346C36.4509 15.7592 36.3728 15.7574 36.3023 15.7295C36.3023 15.6667 36.3118 15.456 36.2163 15.4018C36.1209 15.3476 36.2705 15.2298 36.0787 15.1748C36.0667 15.1326 36.022 15.0974 35.8698 15.0741C35.8698 15.0741 35.8276 15.0036 35.6049 14.9494C35.5545 14.8802 35.4907 14.8217 35.4174 14.7774C35.3744 14.733 35.3217 14.6992 35.2635 14.6785C35.2256 14.6433 35.1835 14.608 35.1646 14.6106C35.0923 14.5358 34.984 14.4463 35.0897 14.6691C35.1861 14.8755 35.254 14.9056 35.2867 14.9039C35.3314 14.9623 35.3641 14.9787 35.3847 14.9813L35.7107 15.4027C35.5499 15.5188 35.4071 15.6579 35.2867 15.8155C35.2867 15.8155 35.0665 15.7819 35.0123 15.9204C34.9582 16.0588 34.9263 16.2369 34.6305 16.2179L34.486 16.4089C34.5284 16.4904 34.56 16.5771 34.5798 16.6669C34.5798 16.6669 34.3716 17.0298 34.1928 17.1072C34.1928 17.1072 34.1274 17.2388 34.2788 17.4469L34.2134 17.6928H34.1171C34.1171 17.6928 34.2366 18.0257 33.9511 17.9061L33.8264 18.0308L33.7894 18.2389C33.7894 18.2389 33.5572 18.417 33.6441 18.675L33.7636 18.7145L33.995 18.8977H34.0491L34.0655 18.9914L34.1618 19.0568L34.1971 19.1428L34.2951 19.2383H34.4L34.4164 19.2555H34.4723C34.5062 19.3216 34.5533 19.3802 34.6107 19.4275C34.6365 19.4412 34.646 19.4042 34.646 19.3526C34.6659 19.3875 34.6939 19.417 34.7277 19.4386C34.793 19.4739 34.7466 19.1669 34.7466 19.1669C34.7568 19.1594 34.7678 19.1531 34.7793 19.148L34.8008 19.1738C34.8008 19.1738 34.8145 19.2598 34.9951 19.2795L35.0579 19.4275H35.1611L35.168 19.4412H35.1921C35.2196 19.4859 35.309 19.6235 35.3976 19.6493C35.4307 19.661 35.466 19.6651 35.5008 19.6614C35.507 19.6633 35.5133 19.6648 35.5197 19.6657L35.5498 19.7689L35.7304 19.811C35.7564 19.8432 35.7763 19.88 35.7889 19.9194C35.7889 19.9469 35.8749 19.9194 35.8749 19.9194C35.8749 19.9194 35.9145 19.9916 36.1914 20.0621C36.2358 20.1132 36.2583 20.1796 36.2542 20.247C36.3196 20.3337 36.3756 20.4271 36.421 20.5257C36.4279 20.573 36.421 20.6977 36.538 20.6358C36.5595 20.6573 36.599 20.6573 36.6782 20.6005C36.6866 20.5935 36.6962 20.5879 36.7065 20.5842C36.7719 20.6246 36.7839 20.7648 36.7839 20.7648C36.7881 20.7996 36.8033 20.8323 36.8272 20.858C36.8512 20.8836 36.8827 20.901 36.9172 20.9075C37.0419 20.9359 37.2922 21.1165 37.447 21.2403C37.6018 21.3642 37.7093 21.4846 37.7704 21.4123C37.7847 21.4194 37.8012 21.4207 37.8164 21.4159C37.8316 21.411 37.8444 21.4005 37.8521 21.3865C37.9009 21.3282 37.9678 21.2876 38.0421 21.2713C38.0767 21.2584 38.114 21.2547 38.1505 21.2604C38.1869 21.2661 38.2213 21.2811 38.2502 21.304C38.2976 21.3509 38.3423 21.4003 38.3844 21.4519C38.4771 21.4811 38.5643 21.5256 38.6424 21.5835C38.6613 21.605 39.9969 23.2803 40.512 32.9467C40.6462 35.4518 40.7227 38.4928 40.709 42.1805C39.437 42.3026 36.2267 42.3723 35.807 40.0528C35.2815 37.1503 36.7865 33.5839 33.6725 29.5961C33.4145 29.2659 33.1453 28.8935 32.883 28.4858C32.4195 27.7741 32.0099 27.0287 31.6575 26.2559C31.6523 26.2464 31.648 26.2369 31.6437 26.2275C30.9893 24.7939 30.4793 23.1418 30.3288 21.3822C30.0028 17.5466 31.39 13.1985 36.7461 9.4635C37.0685 9.24447 37.4052 9.04738 37.754 8.87354C37.754 8.87354 37.754 8.87354 37.7583 8.87354C38.2858 8.59602 38.8402 8.37299 39.413 8.2079C39.511 8.17952 39.6047 8.15372 39.6985 8.12792C40.1342 8.01086 40.576 7.91812 41.022 7.85014C41.5163 7.7723 42.0165 7.73863 42.5167 7.74952C42.5563 7.74952 42.5984 7.74952 42.6388 7.74952C42.8796 7.75468 43.1187 7.75468 43.3604 7.74952C43.3999 7.74952 43.4421 7.74952 43.4816 7.74952C44.0157 7.73318 44.9763 7.77532 46.2981 8.1262C46.2981 8.1262 46.3076 8.1262 46.3119 8.13136C46.9402 8.29915 47.5494 8.53144 48.1299 8.82452C48.5541 9.03376 48.9608 9.27678 49.346 9.55122C53.8635 12.7332 55.513 16.3547 55.6936 19.7216C55.7226 20.2809 55.7131 20.8415 55.6652 21.3994" fill="#35B14F"/>
<path d="M34.474 19.2641H34.4181L34.4017 19.2478H34.4645C34.4668 19.2537 34.47 19.2592 34.474 19.2641Z" fill="#35B14F"/>
<path d="M34.7483 19.1782C34.7483 19.1782 34.7947 19.4852 34.7294 19.45C34.6956 19.4283 34.6676 19.3988 34.6477 19.364C34.6468 19.2963 34.6414 19.2288 34.6313 19.1619C34.6529 19.1456 34.6792 19.1367 34.7062 19.1367C34.7332 19.1367 34.7595 19.1456 34.781 19.1619C34.7693 19.1667 34.7583 19.1731 34.7483 19.1808" fill="#35B14F"/>
<path d="M35.1938 19.4525H35.1741L35.1672 19.4387H35.1904L35.1981 19.4525" fill="#35B14F"/>
<path d="M35.2523 14.6727C35.2384 14.6688 35.2243 14.6656 35.2101 14.6632C35.2101 14.6632 35.1843 14.6357 35.1534 14.6047C35.1723 14.6047 35.2144 14.6374 35.2523 14.6727Z" fill="#35B14F"/>
<path d="M35.3736 14.9753C35.3529 14.9753 35.3202 14.9564 35.2755 14.8979C35.2864 14.8966 35.2965 14.8914 35.3039 14.8833L35.3736 14.9753Z" fill="#35B14F"/>
<path d="M35.524 19.677C35.5176 19.6761 35.5113 19.6746 35.5051 19.6727C35.5081 19.6718 35.5109 19.6702 35.5133 19.6681C35.5157 19.6661 35.5176 19.6635 35.5189 19.6606L35.524 19.677Z" fill="#35B14F"/>
<path d="M35.5937 14.9443L35.5378 14.9306C35.4995 14.8732 35.4554 14.8199 35.4062 14.7715C35.4796 14.8157 35.5433 14.8742 35.5937 14.9435" fill="#35B14F"/>
<path d="M36.292 15.7244C36.2577 15.714 36.2252 15.6983 36.1957 15.6779C36.1957 15.6779 36.2267 15.3898 36.1097 15.3262C36.0392 15.2866 36.0856 15.2256 36.0676 15.1697C36.2593 15.2282 36.1028 15.3417 36.2052 15.3967C36.3075 15.4518 36.2972 15.6616 36.2912 15.7244" fill="#35B14F"/>
<path d="M36.7091 20.5953C36.6988 20.5991 36.6892 20.6046 36.6808 20.6116C36.6016 20.6684 36.5621 20.6684 36.5406 20.6469C36.5543 20.6374 36.5733 20.628 36.5922 20.6142C36.6438 20.5772 36.6782 20.5772 36.7091 20.5953Z" fill="#35B14F"/>
<path d="M38.0447 21.2842C37.9703 21.3005 37.9035 21.341 37.8547 21.3994C37.847 21.4134 37.8342 21.4239 37.819 21.4287C37.8038 21.4335 37.7873 21.4323 37.7729 21.4252C37.7767 21.4217 37.7799 21.4177 37.7824 21.4132C37.8151 21.375 37.8552 21.3439 37.9003 21.3217C37.9454 21.2996 37.9945 21.2868 38.0447 21.2842Z" fill="#35B14F"/>
<path d="M38.565 15.3218C38.5414 15.3056 38.5136 15.2966 38.485 15.296C38.521 15.2125 38.5378 15.1219 38.5341 15.0311C38.5391 15.0273 38.544 15.0233 38.5487 15.019C38.6347 15.0784 38.5908 15.2392 38.565 15.3218Z" fill="#35B14F"/>
<path d="M38.7714 15.5722C38.7299 15.6151 38.7033 15.6703 38.6957 15.7295C38.6717 15.727 38.6475 15.727 38.6235 15.7295C38.6235 15.7295 38.6467 15.5446 38.7095 15.5042C38.6947 15.4741 38.6775 15.4454 38.6579 15.4182C38.7023 15.4629 38.7395 15.5142 38.768 15.5704" fill="#35B14F"/>
<path d="M39.56 16.1577C39.5284 16.1284 39.5034 16.0926 39.4869 16.0528C39.5084 16.0433 39.5274 16.0459 39.5291 16.0829C39.5325 16.1101 39.5432 16.136 39.56 16.1577Z" fill="#35B14F"/>
<path d="M39.7062 16.3125L39.6985 16.3641C39.6807 16.3622 39.6629 16.3622 39.6451 16.3641L39.6563 16.2729C39.6847 16.2987 39.7062 16.3151 39.7062 16.3151" fill="#35B14F"/>
<path d="M39.8679 16.5638C39.8345 16.5564 39.7998 16.5564 39.7664 16.5638C39.7853 16.5474 39.8584 16.489 39.8653 16.4399C39.9427 16.4632 39.9075 16.5259 39.8653 16.5664" fill="#35B14F"/>
<path d="M40.1113 16.77C40.1113 16.77 40.1044 16.77 40.0992 16.7752C40.088 16.7511 40.076 16.7305 40.064 16.709C40.0824 16.7271 40.0983 16.7477 40.1113 16.77Z" fill="#35B14F"/>
<path d="M40.3667 16.8423L40.3504 16.8492C40.3498 16.8394 40.3475 16.8298 40.3435 16.8208C40.3522 16.8268 40.3601 16.8341 40.3667 16.8423Z" fill="#35B14F"/>
<path d="M41.0857 17.2619C41.0722 17.2473 41.0625 17.2297 41.0573 17.2105C41.052 17.1914 41.0514 17.1713 41.0556 17.1519C41.0719 17.1725 41.0814 17.1863 41.0814 17.1863C41.0789 17.2116 41.0803 17.2371 41.0857 17.2619Z" fill="#35B14F"/>
<path d="M41.2705 17.3885C41.2559 17.3652 41.2443 17.3401 41.2361 17.3137C41.243 17.3137 41.2447 17.3137 41.2447 17.3137C41.2525 17.3421 41.2619 17.367 41.2705 17.3911" fill="#35B14F"/>
<path d="M41.4959 17.8288C41.4709 17.8003 41.4574 17.7635 41.458 17.7256C41.4273 17.6717 41.4143 17.6094 41.421 17.5476C41.4309 17.5513 41.4409 17.5545 41.4511 17.5571C41.409 17.6388 41.4795 17.7635 41.4795 17.7635C41.4787 17.7864 41.4844 17.809 41.4959 17.8288Z" fill="#35B14F"/>
<path d="M41.6344 18.011C41.6111 17.9852 41.6086 17.9671 41.6129 17.9551L41.6387 17.9688C41.6336 17.9745 41.6305 17.9816 41.6297 17.9892C41.6289 17.9968 41.6306 18.0044 41.6344 18.011Z" fill="#35B14F"/>
<path d="M42.2414 17.9754H42.2363V17.9673L42.2414 17.9754Z" fill="#35B14F"/>
<path d="M43.1359 18.4187C43.138 18.4425 43.1322 18.4664 43.1196 18.4866H43.1101C43.1211 18.465 43.1297 18.4422 43.1359 18.4187Z" fill="#35B14F"/>
<path d="M43.1385 18.3861C43.1333 18.3766 43.1385 18.3655 43.1479 18.3508C43.1495 18.357 43.1495 18.3635 43.1478 18.3697C43.1462 18.3759 43.1429 18.3815 43.1385 18.3861Z" fill="#35B14F"/>
<path d="M43.1359 18.1263C43.1021 18.1622 43.0807 18.208 43.0749 18.257C43.074 18.2269 43.0791 18.1969 43.0901 18.1689C43.101 18.1408 43.1175 18.1152 43.1385 18.0936C43.1499 18.0899 43.1603 18.0834 43.1686 18.0747C43.1849 18.0979 43.1523 18.1237 43.1359 18.1263Z" fill="#35B14F"/>
<path d="M43.258 18.7C43.2417 18.7784 43.2126 18.8536 43.172 18.9227C43.2107 18.8527 43.2397 18.7778 43.258 18.7Z" fill="#35B14F"/>
<path d="M44.6779 19.7637C44.6686 19.7679 44.6599 19.7734 44.6521 19.78C44.6604 19.7732 44.6701 19.7682 44.6805 19.7654" fill="#35B14F"/>
<path d="M45.1208 19.5789C45.0851 19.5944 45.0514 19.614 45.0202 19.6373L44.9118 19.7638C44.9075 19.7616 44.9029 19.7601 44.8981 19.7595L44.9918 19.6494C45.0309 19.6193 45.0744 19.5956 45.1208 19.5789Z" fill="#35B14F"/>
<path d="M45.2635 20.3916C45.2558 20.393 45.248 20.393 45.2403 20.3916H45.2635Z" fill="#35B14F"/>
<path d="M45.6781 20.4999C45.6519 20.4984 45.6259 20.5047 45.6033 20.518L45.5938 20.5094C45.6208 20.4973 45.6509 20.494 45.6798 20.4999" fill="#35B14F"/>
<path d="M46.041 20.4414C46.0072 20.4419 45.9739 20.4504 45.944 20.4663C45.9141 20.4821 45.8884 20.5048 45.869 20.5325L45.8363 20.5205C45.8608 20.4899 45.893 20.4665 45.9296 20.4525C45.9662 20.4386 46.0058 20.4348 46.0444 20.4414" fill="#35B14F"/>
<path d="M46.5733 20.3494C46.548 20.4453 46.4951 20.5318 46.4211 20.5979L46.4022 20.5695C46.4613 20.5 46.5052 20.4188 46.5312 20.3313C46.5468 20.3326 46.5616 20.3389 46.5733 20.3494Z" fill="#35B14F"/>
<path d="M46.612 24.8155C46.5516 24.7576 46.5156 24.6789 46.5114 24.5953C46.5252 24.5601 46.5398 24.53 46.551 24.499C46.5429 24.6081 46.564 24.7173 46.612 24.8155Z" fill="#35B14F"/>
<path d="M46.8563 24.9633L46.8382 24.977C46.839 24.9707 46.839 24.9644 46.8382 24.9581C46.8411 24.9578 46.8441 24.9582 46.8469 24.959C46.8497 24.9599 46.8523 24.9614 46.8545 24.9633" fill="#35B14F"/>
<path d="M47.5357 21.4786L47.3981 21.5801L47.337 21.5638L47.4729 21.4649C47.4729 21.4649 47.2897 21.071 47.3955 21.0641C47.5013 21.0572 47.6372 20.8921 47.6372 20.8921L47.6673 20.9394C47.613 21.0051 47.5392 21.0518 47.4566 21.0727C47.3508 21.0796 47.5357 21.4778 47.5357 21.4778" fill="#35B14F"/>
<path d="M47.8384 21.4039C47.8169 21.3995 47.795 21.3972 47.773 21.397C47.773 21.397 47.773 21.3927 47.773 21.3901C47.796 21.3929 47.8187 21.3975 47.8409 21.4039" fill="#35B14F"/>
<path d="M48.59 21.0702C48.5711 21.0796 48.5548 21.1054 48.5522 21.1562C48.5262 21.1659 48.503 21.1818 48.4846 21.2024C48.4661 21.2231 48.4528 21.2479 48.446 21.2747C48.4392 21.3016 48.4389 21.3297 48.4453 21.3567C48.4516 21.3837 48.4644 21.4087 48.4825 21.4297L48.2598 21.5681C48.2598 21.5681 48.2409 21.5561 48.2082 21.5397L48.4008 21.4142C48.3836 21.3932 48.3716 21.3685 48.3658 21.3421C48.3599 21.3156 48.3604 21.2881 48.3672 21.2619C48.374 21.2356 48.3869 21.2114 48.4048 21.191C48.4228 21.1707 48.4453 21.155 48.4705 21.145C48.4782 21.0366 48.5384 21.0461 48.5857 21.0693" fill="#35B14F"/>
<path d="M48.8575 21.083C48.8098 21.0858 48.7629 21.0968 48.719 21.1157C48.7085 21.1074 48.6976 21.0996 48.6863 21.0925C48.7412 21.0713 48.8014 21.068 48.8583 21.083" fill="#35B14F"/>
<path d="M49.8465 25.3968C49.794 25.3712 49.7504 25.3305 49.7211 25.28C49.6919 25.2294 49.6783 25.1713 49.6822 25.113C49.693 25.099 49.6987 25.0817 49.6986 25.064C49.6917 24.9634 49.7734 25.064 49.7734 25.15C49.7691 25.2387 49.7949 25.3263 49.8465 25.3986" fill="#35B14F"/>
<path d="M50.1742 21.7255C50.1449 21.7597 50.1051 21.7831 50.0609 21.792C50.0168 21.8009 49.971 21.7947 49.9308 21.7745C49.9596 21.7732 49.9878 21.7658 50.0135 21.753C50.0393 21.7401 50.0621 21.7219 50.0804 21.6997C50.111 21.7105 50.1423 21.7192 50.1742 21.7255Z" fill="#35B14F"/>
<path d="M50.5138 21.7298C50.4265 21.7664 50.3286 21.7689 50.2395 21.7367C50.3061 21.7488 50.3748 21.7356 50.4321 21.6997C50.4597 21.7128 50.4885 21.7228 50.5181 21.7298" fill="#35B14F"/>
<path d="M50.8415 21.7134C50.806 21.7381 50.765 21.7535 50.7221 21.7585C50.6792 21.7634 50.6357 21.7577 50.5955 21.7418C50.6325 21.7416 50.6689 21.7327 50.7019 21.716C50.7348 21.6993 50.7635 21.6752 50.7856 21.6455L50.8415 21.7134Z" fill="#35B14F"/>
<path d="M51.0737 21.7625L50.9826 21.7694L50.9611 21.7436L51.0084 21.7393C51.0287 21.7505 51.0508 21.7583 51.0737 21.7625Z" fill="#35B14F"/>
<path d="M51.5897 21.5423C51.5803 21.541 51.5707 21.541 51.5613 21.5423C51.4185 21.5328 51.3807 21.8751 51.139 21.7676C51.2801 21.7418 51.3265 21.5216 51.4418 21.5259C51.4915 21.528 51.541 21.5343 51.5897 21.5449" fill="#35B14F"/>
<path d="M51.7978 25.4311L51.7841 25.4242C51.7408 25.4032 51.6991 25.3791 51.6594 25.352C51.6608 25.3417 51.6608 25.3313 51.6594 25.321C51.7001 25.363 51.7457 25.4 51.7952 25.4311" fill="#35B14F"/>
<path d="M51.9079 21.5611C51.8776 21.5655 51.8484 21.5757 51.8219 21.5912C51.7908 21.5788 51.7585 21.5696 51.7256 21.5637C51.7541 21.5513 51.7848 21.5449 51.8159 21.5449C51.8469 21.5449 51.8777 21.5513 51.9062 21.5637" fill="#35B14F"/>
<path d="M51.858 25.4664L51.9122 25.4948C51.9139 25.4943 51.9157 25.4943 51.9174 25.4948L51.8469 25.5043C51.8469 25.5043 51.9028 25.4965 51.858 25.4639" fill="#35B14F"/>
<path d="M52.1281 21.6172C52.1281 21.6172 52.1212 21.6172 52.1169 21.6223C52.1126 21.6275 52.1049 21.6129 52.0859 21.6008C52.1006 21.6044 52.1148 21.6099 52.1281 21.6172Z" fill="#35B14F"/>
<path d="M55.9095 20.4759C55.913 22.5084 55.4337 24.5127 54.5111 26.3239L54.4965 26.3522C54.1102 27.11 53.6492 27.8274 53.1205 28.4936C53.5821 27.784 53.99 27.0409 54.3408 26.2705L54.3555 26.2422C55.0091 24.8085 55.5199 23.1565 55.6695 21.3969C55.7174 20.8389 55.7269 20.2783 55.6979 19.7191C55.5173 16.3522 53.8679 12.7324 49.3503 9.54869C48.9649 9.27444 48.5583 9.03143 48.1342 8.822C47.5537 8.52891 46.9445 8.29662 46.3162 8.12883C46.3162 8.12883 46.3067 8.12884 46.3024 8.12368C44.9806 7.7728 44.02 7.73066 43.4859 7.747C43.4464 7.747 43.4042 7.747 43.3647 7.747C43.123 7.75216 42.8839 7.75216 42.6423 7.747C42.6027 7.747 42.5606 7.747 42.521 7.747C42.0193 7.73667 41.5176 7.7712 41.022 7.8502C40.5767 7.91767 40.1354 8.00984 39.7002 8.12626C39.6065 8.15206 39.5127 8.17786 39.4147 8.20624C38.842 8.37132 38.2875 8.59436 37.76 8.87188H37.7557C37.4073 9.05137 37.0714 9.25422 36.7504 9.47904C31.3943 13.214 30.0071 17.563 30.3331 21.3978C30.4836 23.1573 30.9936 24.8094 31.648 26.243C31.6523 26.2525 31.6566 26.2619 31.6618 26.2714C32.0142 27.0442 32.4238 27.7896 32.8873 28.5014C32.3556 27.8324 31.8917 27.1122 31.5027 26.3514L31.4881 26.323C30.6994 24.7667 30.2339 23.0669 30.1197 21.326C30.0054 19.585 30.2448 17.839 30.8233 16.193C31.4019 14.547 32.3076 13.0352 33.486 11.7486C34.6645 10.462 36.0911 9.42729 37.6801 8.70676C37.6801 8.70676 37.6801 8.70676 37.6852 8.70676C38.0155 8.55712 38.3552 8.42124 38.7017 8.29912C39.9656 7.85392 41.2915 7.60958 42.6311 7.575C42.7532 7.575 42.8727 7.56812 42.9966 7.56812C43.1204 7.56812 43.2425 7.56812 43.3621 7.575C45.0303 7.61737 46.674 7.98608 48.2004 8.66031C50.1796 9.53224 51.9081 10.8874 53.2271 12.6013C54.5461 14.3152 55.4135 16.333 55.7495 18.4695V18.4858C55.8526 19.1439 55.9043 19.8089 55.9043 20.475" fill="#35B14F"/>
<g opacity="0.6">
<path d="M55.7547 18.4901C52.3457 12.9471 46.6625 9.55042 38.7052 8.29998C39.969 7.85437 41.2949 7.61002 42.6345 7.57585C42.7567 7.56811 42.8762 7.56812 43 7.56812C43.1239 7.56812 43.246 7.56812 43.3655 7.575C45.0337 7.61716 46.6774 7.98558 48.2039 8.65946C50.1831 9.53152 51.9116 10.8868 53.2306 12.6009C54.5497 14.3149 55.417 16.3329 55.753 18.4695L55.7547 18.4901Z" fill="#267A34"/>
</g>
</g>
<defs>
<clipPath id="clip0_8_1848">
<rect width="86" height="86" fill="white"/>
</clipPath>
</defs>
</svg>
